<svg xmlns="http://www.w3.org/2000/svg" width="171" height="171" viewBox="0 0 171 171">
    <g fill="none" fill-rule="evenodd">
        <circle cx="85.145" cy="85.145" r="85.145" fill="#FFF"/>
        <path fill="#EFA825" d="M46.216 53.545l10.445 14.476 5.63 1.74L90.538 98.14l-2.638 2.988 3.003 6.808 5.908-.34 18.75 18.573s5.634 2.632 10.036-1.853c4.401-4.485 1.408-9.808 1.408-9.808l-18.746-17.98-.042-5.937-5.932-3.224-3.524 3.292-29.144-29.56-2.111-5.923-14.255-9.697-7.036 8.067zm27.216 33.571l-8.956 9.038s-.99-.476-1.13-.54c-.836-.361-2.433-.412-3.944-.359-8.785.31-16.125 7.717-16.394 16.544-.058 1.88.21 3.673.752 5.33l6.525-6.587c.677-.682 1.749-.72 2.385-.084l6.933 6.935c.635.635.602 1.713-.074 2.396l-6.582 6.641-.012-.004c1.7.578 3.549.862 5.488.793 8.786-.31 16.125-7.717 16.395-16.544.041-1.334-.192-3.401-.46-4.63l-.518.524 9.474-9.56-9.882-9.893zm13.59-13.712l8.13-8.206-.307-.879c-.255-1.2-.37-2.462-.33-3.765.27-8.827 7.609-16.233 16.393-16.544 1.94-.069 3.79.215 5.489.794l-.012-.004-6.583 6.642c-.675.682-.708 1.759-.072 2.395l6.932 6.934c.635.636 1.709.598 2.384-.084l6.526-6.585c.543 1.655.81 3.448.753 5.33-.27 8.825-7.61 16.232-16.395 16.543-1.542.053-2.568-.215-3.965-.575l-.929-.31-8.132 8.206-9.882-9.892z"/>
    </g>
</svg>
