<svg xmlns="http://www.w3.org/2000/svg" xmlns:xlink="http://www.w3.org/1999/xlink" width="16" height="20" viewBox="0 0 16 20">
    <defs>
        <path id="a" d="M0 .287h15.455V19H0z"/>
    </defs>
    <g fill="none" fill-rule="evenodd">
        <g transform="translate(0 .768)">
            <mask id="b" fill="#fff">
                <use xlink:href="#a"/>
            </mask>
            <path fill="#FFF" d="M.446 18.349l5.615-1.271c-.014.146-.001.31.035.47.226 1 1.23 1.633 2.23 1.405a1.869 1.869 0 0 0 1.407-2.23 1.51 1.51 0 0 0-.171-.438l5.615-1.273c.273-.06.37-.37.177-.59l-1.981-2.204a4.68 4.68 0 0 1-1.1-2.117l-.726-3.205c-.623-2.75-3.12-4.695-5.834-4.654l-.237-1.044a1.154 1.154 0 0 0-1.394-.88 1.155 1.155 0 0 0-.88 1.394l.233 1.023A5.83 5.83 0 0 0 .172 9.328l.757 3.343c.18.796.15 1.616-.082 2.385l-.838 2.842c-.057.276.164.512.437.45" mask="url(#b)"/>
        </g>
        <path fill="#FDAA29" d="M16 6.555a4.281 4.281 0 1 1-8.563-.001 4.281 4.281 0 0 1 8.563 0"/>
    </g>
</svg>
