<svg xmlns="http://www.w3.org/2000/svg" xmlns:xlink="http://www.w3.org/1999/xlink" width="16" height="19" viewBox="0 0 16 19">
    <defs>
        <path id="a" d="M0 0h15.455v18.712H0z"/>
    </defs>
    <g fill="none" fill-rule="evenodd">
        <mask id="b" fill="#fff">
            <use xlink:href="#a"/>
        </mask>
        <path fill="#FFF" d="M.446 18.06l5.615-1.27c-.014.146-.001.31.035.47a1.87 1.87 0 0 0 2.23 1.406c1-.226 1.634-1.23 1.407-2.23a1.51 1.51 0 0 0-.171-.44l5.615-1.271c.273-.061.37-.371.177-.59l-1.98-2.204a4.673 4.673 0 0 1-1.101-2.117l-.726-3.205c-.623-2.751-3.12-4.695-5.833-4.654L5.476.91A1.154 1.154 0 0 0 4.082.03a1.155 1.155 0 0 0-.88 1.394l.232 1.023C.984 3.552-.45 6.29.172 9.04l.756 3.342a4.655 4.655 0 0 1-.081 2.385L.009 17.61c-.056.276.165.513.437.45" mask="url(#b)"/>
    </g>
</svg>
