<svg xmlns="http://www.w3.org/2000/svg" xmlns:xlink="http://www.w3.org/1999/xlink" width="141" height="44" viewBox="0 0 141 44">
    <defs>
        <path id="a" d="M.456.604h9.888v9.663H.456z"/>
        <path id="c" d="M.685.052h23.782v21.823H.685z"/>
    </defs>
    <g fill="none" fill-rule="evenodd">
        <path fill="#FFF" d="M0 13.942c0-.81.64-1.475 1.471-1.475h.309c.64 0 1.067.333 1.352.785l5.031 7.897 5.054-7.921c.309-.5.736-.761 1.329-.761h.308c.83 0 1.472.666 1.472 1.475v13.94c0 .81-.641 1.451-1.472 1.451a1.47 1.47 0 0 1-1.447-1.45V17.89L9.35 24.004c-.309.477-.689.762-1.234.762-.522 0-.902-.285-1.21-.762L2.87 17.938v9.968c0 .809-.64 1.427-1.447 1.427A1.4 1.4 0 0 1 0 27.906V13.942zM21.18 32.654c-.42-.14-.887-.487-.887-1.157a1.13 1.13 0 0 1 1.143-1.158c.234 0 .374.046.514.092.326.092.583.162.98.162.839 0 1.282-.347 1.749-1.295l.093-.256L20.2 18.903a1.879 1.879 0 0 1-.163-.67c0-.788.606-1.366 1.4-1.366.722 0 1.119.416 1.376 1.064l3.312 8.125 3.079-8.125c.234-.578.63-1.064 1.354-1.064.746 0 1.353.578 1.353 1.319 0 .231-.07.533-.117.671l-4.502 10.718c-1.05 2.5-2.17 3.425-4.153 3.425-.793 0-1.376-.116-1.96-.346M34.137 20.947V20.9c0-4.635 3.51-8.433 8.504-8.433 2.544 0 4.217.745 5.654 1.84.306.233.565.63.565 1.141 0 .792-.635 1.398-1.437 1.398-.4 0-.683-.139-.871-.28-1.131-.907-2.356-1.466-3.934-1.466-3.133 0-5.442 2.561-5.442 5.752v.048c0 3.191 2.285 5.777 5.442 5.777 1.743 0 2.92-.56 4.122-1.56.212-.187.518-.327.872-.327.73 0 1.367.606 1.367 1.328 0 .442-.213.793-.471 1.026-1.556 1.35-3.323 2.19-5.984 2.19-4.807 0-8.387-3.705-8.387-8.387M60.217 24.744v-.822c-.772-.274-1.793-.48-2.987-.48-1.942 0-3.087.754-3.087 2.01v.045c0 1.166 1.12 1.827 2.564 1.827 1.991 0 3.51-1.05 3.51-2.58m-9.012.868v-.046c0-2.603 2.215-3.882 5.426-3.882 1.47 0 2.515.206 3.536.503v-.297c0-1.713-1.145-2.627-3.26-2.627-1.146 0-2.092.184-2.913.48a1.83 1.83 0 0 1-.474.068c-.696 0-1.27-.501-1.27-1.141 0-.502.374-.936.822-1.096 1.246-.433 2.515-.707 4.232-.707 1.967 0 3.435.48 4.356 1.347.97.867 1.419 2.146 1.419 3.722v5.936c0 .754-.647 1.325-1.469 1.325-.87 0-1.468-.549-1.468-1.165v-.456c-.896.982-2.265 1.757-4.281 1.757-2.465 0-4.656-1.301-4.656-3.721M66.79 18.298c0-.785.614-1.41 1.417-1.41.804 0 1.442.625 1.442 1.41v1.246c.661-1.523 1.89-2.677 3.144-2.677.898 0 1.418.576 1.418 1.384 0 .74-.497 1.224-1.136 1.34-2.032.346-3.426 1.87-3.426 4.755v3.601c0 .762-.638 1.386-1.442 1.386-.78 0-1.418-.6-1.418-1.386v-9.65zM84.073 22.252c-.186-1.765-1.26-3.145-3.125-3.145-1.726 0-2.939 1.29-3.196 3.145h6.321zm-2.799 7.081c-3.568 0-6.321-2.51-6.321-6.198v-.046c0-3.416 2.496-6.222 6.018-6.222 3.918 0 5.855 3.122 5.855 5.882 0 .77-.607 1.312-1.33 1.312h-7.72c.303 1.946 1.726 3.033 3.545 3.033 1.19 0 2.122-.408 2.915-1.042a1.07 1.07 0 0 1 .723-.248c.63 0 1.12.474 1.12 1.108 0 .34-.163.633-.373.837-1.12.973-2.52 1.584-4.432 1.584z"/>
        <g transform="translate(30.426 33.733)">
            <mask id="b" fill="#fff">
                <use xlink:href="#a"/>
            </mask>
            <path fill="#FFF" d="M8.602 5.461v-.026c0-1.816-1.337-3.324-3.215-3.324C3.51 2.111 2.2 3.594 2.2 5.408v.027c0 1.815 1.337 3.31 3.214 3.31 1.878 0 3.188-1.468 3.188-3.284m-8.146 0v-.026C.456 2.805 2.51.604 5.414.604c2.904 0 4.93 2.174 4.93 4.804v.027c0 2.629-2.053 4.832-4.957 4.832-2.905 0-4.93-2.176-4.93-4.806" mask="url(#b)"/>
        </g>
        <path fill="#FFF" d="M43.042 35.312c0-.456.362-.833.83-.833h.175c.4 0 .628.203.856.483l4.682 6.084v-5.775c0-.443.361-.804.804-.804a.81.81 0 0 1 .816.804v7.895a.8.8 0 0 1-.804.82h-.067c-.388 0-.627-.2-.856-.496l-4.817-6.258v5.962a.81.81 0 0 1-1.619 0v-7.882zM54.916 35.292c0-.46.364-.825.836-.825.456 0 .821.365.821.825v7.193h4.269c.416 0 .753.339.753.758s-.337.757-.753.757h-5.09a.825.825 0 0 1-.836-.838v-7.87zM63.079 35.286c0-.457.326-.82.749-.82.409 0 .735.363.735.82v7.894c0 .456-.326.82-.735.82-.423 0-.75-.364-.75-.82v-7.894zM68.274 35.312c0-.456.362-.833.83-.833h.174c.4 0 .628.203.857.483l4.682 6.084v-5.775c0-.443.361-.804.804-.804a.81.81 0 0 1 .816.804v7.895a.8.8 0 0 1-.804.82h-.067c-.388 0-.628-.2-.856-.496l-4.817-6.258v5.962a.81.81 0 0 1-1.619 0v-7.882zM80.147 43.156v-7.844c0-.477.342-.845.783-.845h5.14c.379 0 .694.34.694.749 0 .422-.315.75-.694.75H81.7v2.477h3.8c.38 0 .695.34.695.763 0 .408-.316.736-.694.736h-3.8v2.56h4.43c.38 0 .694.34.694.749 0 .421-.314.749-.693.749H80.93c-.44 0-.783-.368-.783-.844M129.868 44h-11.131c.348-4.976.725-14.29.976-14.896.165-.398 3.911-3.829 5.405-5.226.866-.81 1.868-1.753 2.788-2.607 1.963-1.822 3.207-2.927 4.7-1.53 3.048 2.852-5.363 6.626-5.059 8.51.265.996 1.276.91 1.914.318 1.259-1.169 5.798-5.157 6.215-6.268.303-.47.605-7.132.89-10.88.55-2.787 4.439-2.26 4.434.093-.003 1.431-.4 6.583-.55 8.924-.141 2.223-.303 8-.625 8.716-.379.695-1.775 2.009-2.63 2.796-1.67 1.627-6.332 4.639-7.015 7.536-.17.34-.312 4.514-.312 4.514M102.84 39.486c-.683-2.898-5.342-5.91-7.013-7.536-.856-.787-2.252-2.102-2.631-2.797-.322-.716-.483-6.492-.625-8.716-.15-2.341-.547-7.492-.55-8.922-.004-2.353 3.885-2.881 4.435-.094.285 3.748.587 10.41.889 10.88.417 1.11 4.956 5.1 6.215 6.267.637.592 1.649.679 1.914-.319.303-1.882-8.106-5.657-5.06-8.509 1.493-1.397 2.738-.292 4.7 1.53.92.855 1.923 1.799 2.788 2.608 1.494 1.396 5.24 4.828 5.405 5.226.251.607.628 9.919.977 14.896h-11.131s-.142-4.174-.312-4.514"/>
        <g transform="translate(103.895)">
            <mask id="d" fill="#fff">
                <use xlink:href="#c"/>
            </mask>
            <path fill="#FFF" d="M12.576 21.875l-.706-.716c-.523-.53-1.02-.915-2.012-1.681-.605-.469-1.38-1.069-2.44-1.917-2.85-2.283-6.733-5.394-6.733-9.94 0-3.33 2.14-6.31 5.202-7.25 2.446-.75 4.912-.023 6.688 1.901C14.365.325 16.847-.413 19.31.342c3.085.946 5.157 3.854 5.157 7.235 0 4.778-4.388 8.172-6.746 9.995-.525.407-.98.757-1.378 1.063-1.77 1.362-2.366 1.822-3.06 2.524l-.707.716z" mask="url(#d)"/>
        </g>
    </g>
</svg>
