<?xml version="1.0" encoding="UTF-8"?>
<svg width="56px" height="56px" viewBox="0 0 56 56" version="1.1" xmlns="http://www.w3.org/2000/svg" xmlns:xlink="http://www.w3.org/1999/xlink">
    <title>Attachment</title>
    <g id="My-Records" stroke="none" stroke-width="1" fill="none" fill-rule="evenodd">
        <g id="Documents-Loading" transform="translate(-668.000000, -790.000000)">
            <g id="Attachment" transform="translate(668.000000, 790.000000)">
                <g>
                    <path d="M7,0 L42,0 L49,0 C52.8659932,-7.10171439e-16 56,3.13400675 56,7 L56,49 C56,52.8659932 52.8659932,56 49,56 L5.67022437,56 C2.53864592,56 3.83507752e-16,53.4613541 0,50.3297756 L0,44.6595513 L0,22.501799 L0,7 C-4.73447626e-16,3.13400675 3.13400675,-1.78006981e-16 7,0 Z" id="Rectangle" fill="#E0E0E0"></path>
                    <g id="Icon/24/Attachment" opacity="0.447195871" transform="translate(4.000000, 4.000000)" fill="#979797">
                        <path d="M25.5,1.05668152 C31.2136037,1.05668152 35.8738635,5.56658327 36.1151835,11.2207911 L36.125,11.6816815 L36.125,42.4941815 C36.125,46.6017993 32.7951178,49.9316815 28.6875,49.9316815 C24.7168028,49.9316815 21.4728563,46.8200916 21.2610051,42.9022563 L21.25,42.4941815 L21.25,11.8451431 C21.25,9.49793287 23.1527898,7.59514305 25.5,7.59514305 C27.7405188,7.59514305 29.5761009,9.32888336 29.7383428,11.5279606 L29.75,11.8451431 L29.75,39.0614892 C29.75,39.6482918 29.2743025,40.1239892 28.6875,40.1239892 C28.1658977,40.1239892 27.7320822,39.7481295 27.6421183,39.2524749 L27.625,39.0614892 L27.625,11.8451431 C27.625,10.671538 26.6736051,9.72014305 25.5,9.72014305 C24.4102238,9.72014305 23.5120473,10.5404785 23.3892964,11.5973232 L23.375,11.8451431 L23.375,42.4941815 C23.375,45.4281942 25.7534873,47.8066815 28.6875,47.8066815 C31.5041522,47.8066815 33.8088322,45.6146677 33.9886999,42.8434799 L34,42.4941815 L34,11.6816815 C34,6.98726114 30.1944204,3.18168152 25.5,3.18168152 C20.9478348,3.18168152 17.2314574,6.76011452 17.0104025,11.2574458 L17,11.6816815 L17,39.0614892 C17,39.6482918 16.5243025,40.1239892 15.9375,40.1239892 C15.4158977,40.1239892 14.9820822,39.7481295 14.8921183,39.2524749 L14.875,39.0614892 L14.875,11.6816815 C14.875,5.81365605 19.6319745,1.05668152 25.5,1.05668152 Z" id="Color" transform="translate(25.500000, 25.494182) rotate(45.000000) translate(-25.500000, -25.494182) "></path>
                    </g>
                    <g id="Icon/24/Attachment" transform="translate(2.000000, 2.000000)" fill="#979797">
                        <path d="M25,1.03596227 C30.6015723,1.03596227 35.1704544,5.45743458 35.4070427,11.0007756 L35.4166667,11.4526289 L35.4166667,41.6609623 C35.4166667,45.6880386 32.1520763,48.9526289 28.125,48.9526289 C24.2321596,48.9526289 21.0518199,45.9020506 20.8441226,42.0610356 L20.8333333,41.6609623 L20.8333333,11.6128853 C20.8333333,9.31169889 22.6988135,7.44621868 25,7.44621868 C27.1965871,7.44621868 28.9961773,9.14596408 29.155238,11.3019221 L29.1666667,11.6128853 L29.1666667,38.2955777 C29.1666667,38.8708743 28.7002966,39.3372443 28.125,39.3372443 C27.6136252,39.3372443 27.1883159,38.9687544 27.100116,38.4828186 L27.0833333,38.2955777 L27.0833333,11.6128853 C27.0833333,10.4622921 26.1505932,9.52955201 25,9.52955201 C23.931592,9.52955201 23.0510267,10.3338024 22.9306828,11.3699247 L22.9166667,11.6128853 L22.9166667,41.6609623 C22.9166667,44.5374453 25.2485169,46.8692956 28.125,46.8692956 C30.8864237,46.8692956 33.1459139,44.7202624 33.3222548,42.0034116 L33.3333333,41.6609623 L33.3333333,11.4526289 C33.3333333,6.85025602 29.6023729,3.1192956 25,3.1192956 C20.5370929,3.1192956 16.8935857,6.62756325 16.6768652,11.0367116 L16.6666667,11.4526289 L16.6666667,38.2955777 C16.6666667,38.8708743 16.2002966,39.3372443 15.625,39.3372443 C15.1136252,39.3372443 14.6883159,38.9687544 14.600116,38.4828186 L14.5833333,38.2955777 L14.5833333,11.4526289 C14.5833333,5.69966279 19.2470339,1.03596227 25,1.03596227 Z" id="Color" transform="translate(25.000000, 24.994296) rotate(45.000000) translate(-25.000000, -24.994296) "></path>
                    </g>
                </g>
            </g>
        </g>
    </g>
</svg>