<svg xmlns="http://www.w3.org/2000/svg" xmlns:xlink="http://www.w3.org/1999/xlink" width="36" height="36" viewBox="0 0 36 36">
    <defs>
        <path id="prefix__a" d="M0 0L25.16 0 25.16 25.786 0 25.786z"/>
    </defs>
    <g fill="none" fill-rule="evenodd" transform="translate(5 5)">
        <mask id="prefix__b" fill="#fff">
            <use xlink:href="#prefix__a"/>
        </mask>
        <path fill="#EFA825" d="M22.268 20.575c-2.588-1.125-5.542-1.547-8.046-2.785 2.307-3.714 4.332-7.597 6.526-11.395.282-.506-.42-1.266-.928-.9-4.107 2.842-7.005 6.809-10.494 10.24-1.21-.702-2.532-1.21-3.798-1.771-.957-.395-2.026-.704-3.039-1.126 6.865-3.826 14.04-7.09 20.904-10.916-.675 6.274-1.406 12.323-1.125 18.653m-11.507 2.167c.028-.535.056-1.07.056-1.605 0-1.35-.309-3.094.028-4.388.028-.112.028-.225.028-.31 1.745-2.644 4.165-4.84 6.556-6.977-1.66 2.785-3.32 5.57-4.839 8.44-.085.14-.085.28-.056.395-.029.393.168.787.647.872.027 0 .056 0 .056.027-.872 1.069-1.688 2.308-2.476 3.546M24.21.29c-.253-.253-.59-.394-.957-.197C15.516 3.835 8.144 8.337.38 11.993c-.394.198-.45.592-.309.957 0 .395.225.816.843.873 1.407.169 3.011 1.125 4.305 1.688 1.351.59 2.673 1.294 4.052 1.8h.056c.028 0 .028.029.056.029.225 1.097.113 2.42.113 3.432 0 1.323.084 2.785-.057 4.108-.056.534.704 1.294 1.126.675 1.378-1.97 3.038-3.94 4.136-6.077 2.56.703 5.008 2.054 7.568 2.617.17.028.31 0 .45-.057.45.225 1.07.057 1.041-.62-.084-6.64-.084-13.531 1.38-20.06.14-.618-.423-1.04-.93-1.068" mask="url(#prefix__b)"/>
    </g>
</svg>
