<svg xmlns="http://www.w3.org/2000/svg" width="36" height="37" viewBox="0 0 36 37">
    <g fill="#EFA825" fill-rule="evenodd">
        <path d="M1.762 0v12.14H0v9.614l1.743.004.02 4.242h19.956V5.572L16.17 0H1.762zm1.626 1.624h11.383V6.97h5.323v17.406H3.388v-2.618h15.384v-9.619H3.388V1.624zm13.007.905l2.802 2.816h-2.802V2.53zM1.625 20.134h15.521v-6.37H1.624v6.37z" transform="translate(7 6)"/>
        <g>
            <path d="M2.304 1.673c0 .335-.067.428-.097.454-.031.027-.148.088-.555.088H.936V1.064h.79c.387 0 .477.063.496.082.02.02.082.118.082.527M1.831.253H.012v3.995h.924V3.022l.911-.003c.552 0 .913-.09 1.105-.279.192-.186.286-.542.286-1.082 0-.545-.098-.906-.299-1.106C2.74.35 2.377.254 1.831.254M6.04 1.063h.967c.296 0 .482.06.552.178.055.092.122.345.122 1.014 0 .646-.074.897-.136.995-.08.125-.278.189-.583.189H6.04V1.063zm1.043-.81H5.118v3.995h1.987c.632 0 1.05-.152 1.238-.452.182-.289.27-.903.27-1.877 0-.61-.113-1.032-.344-1.284C8.038.382 7.64.253 7.083.253zM10.561 4.248L11.484 4.248 11.484 2.689 13.183 2.689 13.183 1.882 11.484 1.882 11.484 1.064 13.275 1.064 13.275.253 10.561.253z" transform="translate(7 6) translate(2.737 14.684)"/>
        </g>
    </g>
</svg>
