<svg xmlns="http://www.w3.org/2000/svg" xmlns:xlink="http://www.w3.org/1999/xlink" width="36" height="37" viewBox="0 0 36 37">
    <defs>
        <path id="prefix__a" d="M0 0L18.746 0 18.746 25.002 0 25.002z"/>
    </defs>
    <g fill="none" fill-rule="evenodd" transform="translate(9 7)">
        <mask id="prefix__b" fill="#fff">
            <use xlink:href="#prefix__a"/>
        </mask>
        <path fill="#EFA825" d="M.05 21.837c-.164-.979.082-1.99.672-2.816L9.14 7.18c.848-1.147 2.5-1.423 3.676-.614 1.18.841 1.277 2.247.49 3.349l-4.543 6.2c-.623.833-1.888-.1-1.299-.925l4.471-6.018c.22-.348.134-.854-.18-1.079-.355-.252-.86-.167-1.08.181L2.217 20.087c-.646.905-.414 2.08.451 2.698.844.69 2.142.37 2.664-.445l10.95-15.35c1.073-1.463.728-3.519-.76-4.552-1.457-1.039-3.514-.695-4.553.761L2.501 14.944c-.702.984-2.153-.02-1.45-1.004L9.472 2.133c1.63-2.284 4.832-2.819 7.114-1.19 2.317 1.623 2.853 4.826 1.196 7.148L6.861 23.4c-.589.826-1.465 1.389-2.444 1.552-2.056.345-4.04-1.16-4.368-3.116" mask="url(#prefix__b)"/>
    </g>
</svg>
