<svg xmlns="http://www.w3.org/2000/svg" xmlns:xlink="http://www.w3.org/1999/xlink" width="36" height="36" viewBox="0 0 36 36">
    <defs>
        <path id="prefix__a" d="M0 0.755L25.852 0.755 25.852 27 0 27z"/>
    </defs>
    <g fill="none" fill-rule="evenodd">
        <g transform="translate(5 4) translate(0 .245)">
            <mask id="prefix__b" fill="#fff">
                <use xlink:href="#prefix__a"/>
            </mask>
            <path fill="#EFA825" d="M24.174 20.236c0 .236-.184.446-.446.446h-2.753V15.83H4.824v4.85H2.071c-.236 0-.445-.21-.445-.445V8.306c0-.236.209-.445.445-.445h21.684c.235 0 .445.209.445.445l-.026 11.93zm-4.824 4.719c0 .236-.184.446-.446.446H6.896c-.236 0-.446-.21-.446-.446v-7.498h12.873v7.498h.027zM6.476 2.825c0-.235.184-.444.446-.444H18.93c.236 0 .446.209.446.445v3.409h-12.9v-3.41zm17.279 3.41h-2.78v-3.41c0-1.152-.917-2.07-2.071-2.07H6.896c-1.128 0-2.072.944-2.072 2.07v3.41H2.071C.944 6.235 0 7.179 0 8.305v11.93c0 1.154.918 2.072 2.071 2.072h2.78v2.622c0 1.154.917 2.072 2.071 2.072H18.93c1.128 0 2.072-.945 2.072-2.072v-2.622h2.779c1.127 0 2.071-.944 2.071-2.071V8.306c-.026-1.153-.97-2.071-2.097-2.071z" mask="url(#prefix__b)"/>
        </g>
        <path fill="#EFA825" d="M8.783 20.874h8.26c.445 0 .812-.367.812-.812 0-.446-.367-.813-.813-.813H8.783c-.446 0-.812.367-.812.813 0 .445.34.812.812.812M8.783 24.1h8.26c.445 0 .812-.368.812-.814 0-.446-.367-.812-.813-.812H8.783c-.446 0-.812.366-.812.812 0 .446.34.813.812.813" transform="translate(5 4)"/>
    </g>
</svg>
