<svg xmlns="http://www.w3.org/2000/svg" width="36" height="37" viewBox="0 0 36 37">
    <path fill="#EFA825" fill-rule="evenodd" d="M21.242 26.6h1.472V16.3h-1.472v10.3zm-3.678 0h1.471V16.3h-1.471v10.3zm-3.678 0h1.472V16.3h-1.472v10.3zm-2.943 2.942h14.714V13.357H10.943v16.185zM9.471 10.414h17.657v1.475h-.661c-.025-.003-.049-.004-.074-.003H10.207c-.025-.001-.05 0-.075.003h-.661v-1.475zm5.886-1.471h5.885v-1.47h-5.885v1.47zM14.621 6c-.406 0-.736.33-.735.736V8.943h-5.15c-.406 0-.736.329-.736.735v2.946c.001.405.331.733.736.733h.735v16.92c0 .408.33.737.736.737h16.186c.406 0 .735-.33.735-.736V13.357h.736c.406 0 .735-.328.736-.733V9.679c0-.406-.329-.736-.736-.736h-5.15V6.739c.002-.407-.327-.737-.734-.74h-7.359z"/>
</svg>
