<?xml version="1.0" encoding="UTF-8"?>
<svg width="56px" height="70px" viewBox="0 0 56 70" version="1.1" xmlns="http://www.w3.org/2000/svg" xmlns:xlink="http://www.w3.org/1999/xlink">
    <title>PDF</title>
    <g id="My-Records" stroke="none" stroke-width="1" fill="none" fill-rule="evenodd">
        <g id="Documents" transform="translate(-668.000000, -791.000000)">
            <g id="PDF" transform="translate(668.000000, 791.000000)">
                <g>
                    <path d="M7,0 L37.8578644,0 C40.5100293,-4.87194788e-16 43.0535684,1.0535684 44.9289322,2.92893219 L53.0710678,11.0710678 C54.9464316,12.9464316 56,15.4899707 56,18.1421356 L56,63 C56,66.8659932 52.8659932,70 49,70 L7,70 C3.13400675,70 4.73447626e-16,66.8659932 0,63 L0,7 C-4.73447626e-16,3.13400675 3.13400675,7.10171439e-16 7,0 Z" id="Rectangle" fill="#E0E0E0"></path>
                    <path d="M38.7005051,1.79387755e-14 C40.5468453,2.11324014e-14 42.3179787,0.729435854 43.6286255,2.02871949 L53.9497475,12.3497475 C55.2625021,13.6625021 56,15.4429795 56,17.2994949 L56,17.9997087 L39,18 C38.4871642,18 38.0644928,17.6139598 38.0067277,17.1166211 L38,17 L38,0.000708683185 L38.7005051,1.79387755e-14 Z" id="Combined-Shape" fill="#979797"></path>
                    <path d="M24.8345405,5.26882854 C28.2222688,3.98466175 30.0731747,7.42829278 29.6015968,12.8878465 C29.4705031,14.4055444 29.1865843,15.9730312 28.7550996,17.6081074 L28.4038997,18.8473656 L28.3248878,19.069502 C29.6931782,21.1370185 31.4042049,23.365757 33.3546135,25.6570988 L34.1195475,26.5352681 C36.3524755,26.6008322 38.5982326,26.884742 40.8407679,27.391607 C46.4465531,28.6586445 48.8473105,32.2430696 45.4012865,34.8084792 C42.8517402,36.7065015 38.4835472,36.210126 35.5752473,33.2109323 C34.5594708,32.1634095 33.5407154,31.072661 32.5427575,29.9602364 C29.4791026,30.0273644 26.4626326,30.5463196 23.5907815,31.4861393 L22.3691265,31.914596 L17.6283324,39.7475335 C15.7193712,43.0934272 12.0780984,44.0353221 10.0070564,41.7378287 C7.92031712,39.4229217 9.15435552,35.8224592 12.9881208,33.0602079 C14.8376962,31.7275774 16.8202613,30.5737166 18.9168974,29.6171287 L19.9797712,29.1554944 C21.845889,25.8793118 23.2981997,22.9145099 24.3383124,20.1316812 L24.5463241,19.5427366 C23.103569,17.1749456 22.1256904,15.0335707 21.6796175,13.1341298 C20.8883466,9.76478773 22.3528705,6.20954104 24.8345405,5.26882854 Z M16.6055727,34.7808786 L16.2175669,35.0228337 L14.9965137,35.8598232 C12.6160795,37.5749405 12.1408896,38.9613669 12.5600936,39.4264073 C12.8710189,39.7713298 13.7866039,39.5344937 14.6415355,38.0360292 L16.6055727,34.7808786 Z M37.5448624,30.2846201 L38.0426328,30.8079031 C39.6566281,32.4723409 41.8790926,32.8306767 43.0891032,32.2028074 L43.314693,32.0603664 L43.1252055,31.9028566 C42.7582443,31.6320221 42.1366819,31.3372345 41.259391,31.0661132 L40.7023201,30.9066613 L40.0838202,30.755175 L38.8312503,30.4976674 L37.5448624,30.2846201 Z M26.8825458,23.0230248 L26.5104563,23.9138594 L25.8998244,25.2582499 L25.2381659,26.6261438 L24.7562755,27.5606599 L24.9173413,27.5219651 C25.7710003,27.3102625 26.6335948,27.1314086 27.503897,26.9860848 L28.8149776,26.7933319 L29.7313352,26.691751 L28.6499363,25.3531665 L27.7063823,24.1342505 L26.8825458,23.0230248 Z M26.0517447,8.49384925 C25.334629,8.76572222 24.6045275,10.5381011 25.0286787,12.3441963 C25.117586,12.7227761 25.2377849,13.1231457 25.3882263,13.5436039 L25.6364391,14.1891452 L25.8710192,14.7373583 L25.9887512,14.097173 L26.0631185,13.5890717 L26.1738488,12.5904796 C26.4637736,9.23396046 26.0635832,8.48940172 26.0517447,8.49384925 Z" id="Path-26" fill="#979797" fill-rule="nonzero"></path>
                    <path d="M0,49 L56,49 L56,63 C56,66.8659932 52.8659932,70 49,70 L7,70 C3.13400675,70 4.73447626e-16,66.8659932 0,63 L0,49 L0,49 Z" id="Rectangle" fill="#FD6B6B"></path>
                    <path d="M18.1291209,65 L18.1291209,61.4432285 L19.0425824,61.4432285 C20.2880037,61.4432285 21.2483974,61.1582307 21.9237637,60.5882353 C22.59913,60.0182399 22.9368132,59.1951664 22.9368132,58.119015 C22.9368132,57.0839033 22.6197344,56.3052896 21.9855769,55.7831737 C21.3514194,55.2610579 20.4253663,55 19.2074176,55 L19.2074176,55 L16,55 L16,65 L18.1291209,65 Z M18.8296703,59.7058824 L18.1291209,59.7058824 L18.1291209,56.7373461 L19.0975275,56.7373461 C19.6790293,56.7373461 20.1059982,56.8559052 20.3784341,57.0930233 C20.65087,57.3301414 20.7870879,57.6972184 20.7870879,58.1942544 C20.7870879,58.6867305 20.6245421,59.0617875 20.2994505,59.3194254 C19.974359,59.5770634 19.4844322,59.7058824 18.8296703,59.7058824 L18.8296703,59.7058824 Z M27.6758242,65 C29.452381,65 30.8111264,64.5622435 31.7520604,63.6867305 C32.6929945,62.8112175 33.1634615,61.5503876 33.1634615,59.9042408 C33.1634615,58.3584131 32.7101648,57.1545828 31.8035714,56.2927497 C30.896978,55.4309166 29.6240842,55 27.9848901,55 L27.9848901,55 L24.8324176,55 L24.8324176,65 L27.6758242,65 Z M27.875,63.248974 L26.9615385,63.248974 L26.9615385,56.7373461 L28.0947802,56.7373461 C29.9995421,56.7373461 30.9519231,57.8112175 30.9519231,59.9589603 C30.9519231,62.1523028 29.9262821,63.248974 27.875,63.248974 L27.875,63.248974 Z M37.3392857,65 L37.3392857,61.0465116 L40.7458791,61.0465116 L40.7458791,59.3160055 L37.3392857,59.3160055 L37.3392857,56.7373461 L41,56.7373461 L41,55 L35.2445055,55 L35.2445055,65 L37.3392857,65 Z" fill="#FFFFFF" fill-rule="nonzero"></path>
                </g>
            </g>
        </g>
    </g>
</svg>