<svg xmlns="http://www.w3.org/2000/svg" xmlns:xlink="http://www.w3.org/1999/xlink" width="21" height="19" viewBox="0 0 21 19">
    <defs>
        <path id="a" d="M0 .579h11.656v16.43H0z"/>
        <path id="c" d="M.178.57h11.657V17H.178z"/>
    </defs>
    <g fill="none" fill-rule="evenodd">
        <g transform="rotate(-90 9.5 9.5)">
            <mask id="b" fill="#fff">
                <use xlink:href="#a"/>
            </mask>
            <path fill="#EFA825" d="M7.723.579c.19 0 .368.098.5.276l3.433 4.64-3.433 4.607c-.113.153-.242.24-.354.24a.203.203 0 0 1-.06-.01l-.034-.008H7.74a.631.631 0 0 1-.45-.181c-.295-.283-.324-.82-.065-1.171l1.927-2.574.3-.4H5.47c-2.264 0-4.105 2.1-4.105 4.683 0 2.582 1.841 4.683 4.105 4.683.39 0 .683.354.683.823s-.294.822-.683.822c-3.017 0-5.47-2.84-5.47-6.328 0-3.49 2.453-6.328 5.47-6.328h3.545l-.298-.4L7.22 1.946A.904.904 0 0 1 7.3.77a.585.585 0 0 1 .423-.192" mask="url(#b)"/>
        </g>
        <g transform="rotate(-90 8 4)">
            <mask id="d" fill="#fff">
                <use xlink:href="#c"/>
            </mask>
            <path fill="#EFA825" d="M4.112 17c-.191 0-.368-.098-.5-.276L.178 12.082l3.434-4.606c.113-.152.242-.24.354-.24.02 0 .04.003.06.01l.034.01h.035c.173 0 .324.06.45.18.295.282.324.82.065 1.171l-1.927 2.574-.3.4h3.982c2.264 0 4.104-2.1 4.104-4.683 0-2.583-1.84-4.684-4.104-4.684-.39 0-.683-.353-.683-.822S5.975.57 6.365.57c3.017 0 5.47 2.84 5.47 6.33 0 3.488-2.453 6.327-5.47 6.327H2.82l.298.4 1.497 2.008c.267.334.233.868-.08 1.174a.587.587 0 0 1-.423.192" mask="url(#d)"/>
        </g>
    </g>
</svg>
